# xmcd CD database file
#
# Track frame offsets:
#	150
#	37254
#	59547
#	91366
#	120425
#	148850
#	174624
#	194451
#	229087
#	252762
#
# Disc length: 3794 seconds
#
# Revision: 0
# Processed by: cddbd v1.5.1PL2 Copyright (c) Steve Scherf et al.
# Submitted via: CDex 1.51
#
DISCID=900ed00a
DTITLE=Andy Young Quintet - Downside Up
DYEAR=2006
DGENRE=Jazz
TTITLE0=Unapproachable You
TTITLE1=Swingthing
TTITLE2=Serenade
TTITLE3=Downside Up
TTITLE4=Dizzy Spells
TTITLE5=Summer Solstice
TTITLE6=Blues for Pud'
TTITLE7=Never In A Million
TTITLE8=Just Swingin'
TTITLE9=Lagos
EXTD=YEAR: 2006
EXTT0=
EXTT1=
EXTT2=
EXTT3=
EXTT4=
EXTT5=
EXTT6=
EXTT7=
EXTT8=
EXTT9=
PLAYORDER=
